HispaMaster-ExtraLight.ufo
<glyph name="two" format="2">
  <advance width="490"/>
  <unicode hex="0032"/>
  <outline>
    <contour>
      <point x="49" y="0" type="line"/>
      <point x="442" y="0" type="line"/>
      <point x="442" y="28" type="line"/>
      <point x="64" y="28" type="line"/>
      <point x="68" y="17" type="line"/>
      <point x="145" y="104"/>
      <point x="221" y="192"/>
      <point x="246" y="221" type="curve" smooth="yes"/>
      <point x="365" y="360"/>
      <point x="407" y="423"/>
      <point x="407" y="495" type="curve" smooth="yes"/>
      <point x="407" y="602"/>
      <point x="340" y="667"/>
      <point x="230" y="667" type="curve" smooth="yes"/>
      <point x="151" y="667"/>
      <point x="82" y="622"/>
      <point x="49" y="552" type="curve"/>
      <point x="53" y="543"/>
      <point x="60" y="538"/>
      <point x="69" y="538" type="curve" smooth="yes"/>
      <point x="80" y="538"/>
      <point x="87" y="546"/>
      <point x="94" y="559" type="curve" smooth="yes"/>
      <point x="134" y="636" type="line"/>
      <point x="101" y="605" type="line"/>
      <point x="149" y="636"/>
      <point x="181" y="647"/>
      <point x="226" y="647" type="curve" smooth="yes"/>
      <point x="325" y="647"/>
      <point x="375" y="578"/>
      <point x="375" y="496" type="curve" smooth="yes"/>
      <point x="375" y="426"/>
      <point x="343" y="371"/>
      <point x="240" y="247" type="curve" smooth="yes"/>
      <point x="195" y="193"/>
      <point x="122" y="107"/>
      <point x="49" y="22" type="curve"/>
    </contour>
  </outline>
</glyph>
<glyph name="three" format="2">
  <advance width="490"/>
  <unicode hex="0033"/>
  <outline>
    <contour>
      <point x="159" y="352" type="line"/>
      <point x="159" y="332" type="line"/>
      <point x="201" y="332" type="line" smooth="yes"/>
      <point x="330" y="332"/>
      <point x="393" y="275"/>
      <point x="393" y="169" type="curve" smooth="yes"/>
      <point x="393" y="74"/>
      <point x="330" y="7"/>
      <point x="216" y="7" type="curve" smooth="yes"/>
      <point x="160" y="7"/>
      <point x="126" y="21"/>
      <point x="94" y="43" type="curve"/>
      <point x="122" y="12" type="line"/>
      <point x="86" y="98" type="line" smooth="yes"/>
      <point x="81" y="109"/>
      <point x="74" y="114"/>
      <point x="65" y="114" type="curve" smooth="yes"/>
      <point x="53" y="114"/>
      <point x="45" y="106"/>
      <point x="45" y="95" type="curve"/>
      <point x="72" y="25"/>
      <point x="135" y="-13"/>
      <point x="225" y="-13" type="curve" smooth="yes"/>
      <point x="337" y="-13"/>
      <point x="425" y="54"/>
      <point x="425" y="168" type="curve" smooth="yes"/>
      <point x="425" y="275"/>
      <point x="355" y="340"/>
      <point x="233" y="344" type="curve"/>
      <point x="233" y="340" type="line"/>
      <point x="341" y="352"/>
      <point x="404" y="424"/>
      <point x="404" y="506" type="curve" smooth="yes"/>
      <point x="404" y="600"/>
      <point x="339" y="667"/>
      <point x="235" y="667" type="curve" smooth="yes"/>
      <point x="163" y="667"/>
      <point x="86" y="636"/>
      <point x="62" y="553" type="curve"/>
      <point x="64" y="544"/>
      <point x="71" y="539"/>
      <point x="80" y="539" type="curve" smooth="yes"/>
      <point x="90" y="539"/>
      <point x="97" y="542"/>
      <point x="103" y="557" type="curve" smooth="yes"/>
      <point x="136" y="641" type="line"/>
      <point x="110" y="611" type="line"/>
      <point x="150" y="637"/>
      <point x="184" y="647"/>
      <point x="233" y="647" type="curve" smooth="yes"/>
      <point x="322" y="647"/>
      <point x="372" y="591"/>
      <point x="372" y="506" type="curve" smooth="yes"/>
      <point x="372" y="408"/>
      <point x="295" y="352"/>
      <point x="200" y="352" type="curve" smooth="yes"/>
    </contour>
  </outline>
</glyph>
<glyph name="five" format="2">
  <advance width="490"/>
  <unicode hex="0035"/>
  <outline>
    <contour>
      <point x="94" y="362" type="line"/>
      <point x="107" y="362" type="line"/>
      <point x="127" y="642" type="line"/>
      <point x="117" y="626" type="line"/>
      <point x="417" y="626" type="line"/>
      <point x="417" y="654" type="line"/>
      <point x="107" y="654" type="line"/>
      <point x="86" y="355" type="line"/>
      <point x="103" y="355" type="line"/>
      <point x="139" y="378"/>
      <point x="179" y="386"/>
      <point x="230" y="386" type="curve" smooth="yes"/>
      <point x="331" y="386"/>
      <point x="401" y="327"/>
      <point x="401" y="198" type="curve" smooth="yes"/>
      <point x="401" y="81"/>
      <point x="332" y="7"/>
      <point x="207" y="7" type="curve" smooth="yes"/>
      <point x="152" y="7"/>
      <point x="120" y="19"/>
      <point x="87" y="41" type="curve"/>
      <point x="114" y="13" type="line"/>
      <point x="78" y="96" type="line" smooth="yes"/>
      <point x="73" y="107"/>
      <point x="67" y="112"/>
      <point x="57" y="112" type="curve" smooth="yes"/>
      <point x="47" y="112"/>
      <point x="40" y="106"/>
      <point x="37" y="97" type="curve"/>
      <point x="58" y="25"/>
      <point x="126" y="-13"/>
      <point x="211" y="-13" type="curve" smooth="yes"/>
      <point x="352" y="-13"/>
      <point x="433" y="82"/>
      <point x="433" y="203" type="curve" smooth="yes"/>
      <point x="433" y="327"/>
      <point x="354" y="406"/>
      <point x="232" y="406" type="curve" smooth="yes"/>
      <point x="182" y="406"/>
      <point x="139" y="396"/>
      <point x="94" y="369" type="curve"/>
    </contour>
  </outline>
</glyph>
<glyph name="six" format="2">
  <advance width="490"/>
  <unicode hex="0036"/>
  <outline>
    <contour>
      <point x="250" y="7" type="curve" smooth="yes"/>
      <point x="142" y="7"/>
      <point x="85" y="114"/>
      <point x="85" y="245" type="curve" smooth="yes"/>
      <point x="85" y="442"/>
      <point x="212" y="611"/>
      <point x="435" y="651" type="curve"/>
      <point x="432" y="667" type="line"/>
      <point x="198" y="635"/>
      <point x="53" y="446"/>
      <point x="53" y="244" type="curve" smooth="yes"/>
      <point x="53" y="93"/>
      <point x="124" y="-13"/>
      <point x="248" y="-13" type="curve" smooth="yes"/>
      <point x="352" y="-13"/>
      <point x="437" y="79"/>
      <point x="437" y="198" type="curve" smooth="yes"/>
      <point x="437" y="319"/>
      <point x="370" y="395"/>
      <point x="261" y="395" type="curve" smooth="yes"/>
      <point x="184" y="395"/>
      <point x="124" y="359"/>
      <point x="69" y="281" type="curve"/>
      <point x="79" y="272" type="line"/>
      <point x="140" y="347"/>
      <point x="191" y="375"/>
      <point x="256" y="375" type="curve" smooth="yes"/>
      <point x="348" y="375"/>
      <point x="405" y="310"/>
      <point x="405" y="195" type="curve" smooth="yes"/>
      <point x="405" y="84"/>
      <point x="333" y="7"/>
    </contour>
  </outline>
</glyph>
<glyph name="seven" format="2">
  <advance width="490"/>
  <unicode hex="0037"/>
  <outline>
    <contour>
      <point x="141" y="4" type="line"/>
      <point x="145" y="0" type="line"/>
      <point x="174" y="0" type="line"/>
      <point x="424" y="634" type="line"/>
      <point x="424" y="654" type="line"/>
      <point x="46" y="654" type="line"/>
      <point x="46" y="626" type="line"/>
      <point x="413" y="626" type="line"/>
      <point x="405" y="640" type="line"/>
    </contour>
  </outline>
</glyph>
<glyph name="nine" format="2">
  <advance width="490"/>
  <unicode hex="0039"/>
  <outline>
    <contour>
      <point x="81" y="470" type="curve" smooth="yes"/>
      <point x="81" y="580"/>
      <point x="151" y="647"/>
      <point x="236" y="647" type="curve" smooth="yes"/>
      <point x="326" y="647"/>
      <point x="399" y="553"/>
      <point x="399" y="402" type="curve" smooth="yes"/>
      <point x="399" y="236"/>
      <point x="286" y="80"/>
      <point x="79" y="4" type="curve"/>
      <point x="85" y="-13" type="line"/>
      <point x="310" y="60"/>
      <point x="431" y="218"/>
      <point x="431" y="404" type="curve" smooth="yes"/>
      <point x="431" y="568"/>
      <point x="348" y="667"/>
      <point x="237" y="667" type="curve" smooth="yes"/>
      <point x="135" y="667"/>
      <point x="51" y="587"/>
      <point x="49" y="474" type="curve" smooth="yes"/>
      <point x="47" y="348"/>
      <point x="128" y="267"/>
      <point x="241" y="267" type="curve" smooth="yes"/>
      <point x="320" y="267"/>
      <point x="384" y="310"/>
      <point x="415" y="378" type="curve"/>
      <point x="407" y="382" type="line"/>
      <point x="368" y="321"/>
      <point x="308" y="287"/>
      <point x="248" y="287" type="curve" smooth="yes"/>
      <point x="152" y="287"/>
      <point x="81" y="360"/>
    </contour>
  </outline>
</glyph>
<glyph name="O" format="2">
  <advance width="706"/>
  <unicode hex="004F"/>
  <anchor x="353" y="682" name="aboveUC"/>
  <anchor x="358" y="-22" name="belowLC"/>
  <anchor x="516" y="680" name="hornLC"/>
  <anchor x="443" y="0" name="ogonek"/>
  <outline>
    <contour>
      <point x="95" y="338" type="curve" smooth="yes"/>
      <point x="95" y="518"/>
      <point x="193" y="668"/>
      <point x="353" y="668" type="curve" smooth="yes"/>
      <point x="513" y="668"/>
      <point x="611" y="518"/>
      <point x="611" y="338" type="curve" smooth="yes"/>
      <point x="611" y="158"/>
      <point x="513" y="9"/>
      <point x="353" y="9" type="curve" smooth="yes"/>
      <point x="193" y="9"/>
      <point x="95" y="158"/>
    </contour>
    <contour>
      <point x="353" y="690" type="curve" smooth="yes"/>
      <point x="188" y="690"/>
      <point x="63" y="550"/>
      <point x="63" y="338" type="curve" smooth="yes"/>
      <point x="63" y="126"/>
      <point x="188" y="-13"/>
      <point x="353" y="-13" type="curve" smooth="yes"/>
      <point x="518" y="-13"/>
      <point x="643" y="126"/>
      <point x="643" y="338" type="curve" smooth="yes"/>
      <point x="643" y="550"/>
      <point x="518" y="690"/>
    </contour>
  </outline>
</glyph>
<glyph name="o" format="2">
  <advance width="538"/>
  <unicode hex="006F"/>
  <anchor x="269" y="500" name="aboveLC"/>
  <anchor x="266" y="-22" name="belowLC"/>
  <anchor x="397" y="488" name="hornLC"/>
  <anchor x="345" y="0" name="ogonek"/>
  <outline>
    <contour>
      <point x="269" y="-13" type="curve" smooth="yes"/>
      <point x="376" y="-13"/>
      <point x="486" y="62"/>
      <point x="486" y="233" type="curve" smooth="yes"/>
      <point x="486" y="404"/>
      <point x="376" y="483"/>
      <point x="269" y="483" type="curve" smooth="yes"/>
      <point x="162" y="483"/>
      <point x="52" y="404"/>
      <point x="52" y="233" type="curve" smooth="yes"/>
      <point x="52" y="62"/>
      <point x="162" y="-13"/>
    </contour>
    <contour>
      <point x="269" y="7" type="curve" smooth="yes"/>
      <point x="158" y="7"/>
      <point x="84" y="92"/>
      <point x="84" y="233" type="curve" smooth="yes"/>
      <point x="84" y="374"/>
      <point x="158" y="463"/>
      <point x="269" y="463" type="curve" smooth="yes"/>
      <point x="380" y="463"/>
      <point x="454" y="374"/>
      <point x="454" y="233" type="curve" smooth="yes"/>
      <point x="454" y="92"/>
      <point x="380" y="7"/>
    </contour>
  </outline>
</glyph>
<glyph name="z" format="2">
  <advance width="457"/>
  <unicode hex="007A"/>
  <anchor x="240" y="500" name="aboveLC"/>
  <anchor x="242" y="-22" name="belowLC"/>
  <outline>
    <contour>
      <point x="59" y="470" type="line"/>
      <point x="53" y="345" type="line"/>
      <point x="74" y="341" type="line"/>
      <point x="95" y="470" type="line"/>
      <point x="82" y="450" type="line"/>
      <point x="384" y="450" type="line"/>
      <point x="382" y="470" type="line"/>
      <point x="54" y="20" type="line"/>
      <point x="54" y="0" type="line"/>
      <point x="411" y="0" type="line"/>
      <point x="418" y="139" type="line"/>
      <point x="397" y="139" type="line"/>
      <point x="373" y="0" type="line"/>
      <point x="393" y="20" type="line"/>
      <point x="70" y="20" type="line"/>
      <point x="72" y="0" type="line"/>
      <point x="401" y="450" type="line"/>
      <point x="401" y="470" type="line"/>
    </contour>
  </outline>
</glyph>
<glyph name="dcaron" format="2">
  <advance width="585"/>
  <unicode hex="010F"/>
  <outline>
    <contour>
      <point x="540" y="744" type="curve" smooth="yes"/>
      <point x="533" y="744"/>
      <point x="527" y="742"/>
      <point x="522" y="738" type="curve"/>
      <point x="520" y="520" type="line"/>
      <point x="535" y="520" type="line"/>
      <point x="543" y="592" type="line" smooth="yes"/>
      <point x="549" y="649"/>
      <point x="556" y="694"/>
      <point x="556" y="722" type="curve" smooth="yes"/>
      <point x="556" y="737"/>
      <point x="551" y="744"/>
    </contour>
    <component base="d"/>
  </outline>
</glyph>
<glyph name="lcaron" format="2">
  <advance width="313"/>
  <unicode hex="013E"/>
  <outline>
    <contour>
      <point x="268" y="744" type="curve" smooth="yes"/>
      <point x="261" y="744"/>
      <point x="255" y="742"/>
      <point x="250" y="738" type="curve"/>
      <point x="248" y="520" type="line"/>
      <point x="263" y="520" type="line"/>
      <point x="271" y="592" type="line" smooth="yes"/>
      <point x="277" y="649"/>
      <point x="284" y="694"/>
      <point x="284" y="722" type="curve" smooth="yes"/>
      <point x="284" y="737"/>
      <point x="279" y="744"/>
    </contour>
    <component base="l"/>
  </outline>
</glyph>
<glyph name="tcaron" format="2">
  <advance width="332"/>
  <unicode hex="0165"/>
  <outline>
    <contour>
      <point x="243" y="744" type="curve" smooth="yes"/>
      <point x="236" y="744"/>
      <point x="230" y="742"/>
      <point x="225" y="738" type="curve"/>
      <point x="223" y="520" type="line"/>
      <point x="238" y="520" type="line"/>
      <point x="246" y="592" type="line" smooth="yes"/>
      <point x="252" y="649"/>
      <point x="259" y="694"/>
      <point x="259" y="722" type="curve" smooth="yes"/>
      <point x="259" y="737"/>
      <point x="254" y="744"/>
    </contour>
    <component base="t"/>
  </outline>
</glyph>
<glyph name="verticallinemod" format="2">
  <advance width="88"/>
  <unicode hex="02C8"/>
  <outline>
    <contour>
      <point x="34" y="570" type="line"/>
      <point x="54" y="570" type="line"/>
      <point x="60" y="758" type="line"/>
      <point x="28" y="758" type="line"/>
    </contour>
  </outline>
</glyph>
<glyph name="circumflexcmb" format="2">
  <unicode hex="0302"/>
  <anchor x="0" y="500" name="_aboveLC"/>
  <anchor x="0" y="699" name="aboveLC"/>
  <outline>
    <contour>
      <point x="109" y="553" type="line"/>
      <point x="120" y="562" type="line"/>
      <point x="7" y="719" type="line"/>
      <point x="-7" y="719" type="line"/>
      <point x="-120" y="562" type="line"/>
      <point x="-109" y="553" type="line"/>
      <point x="7" y="688" type="line"/>
      <point x="-7" y="688" type="line"/>
    </contour>
  </outline>
</glyph>
<glyph name="verticallinebelowcmb" format="2">
  <unicode hex="0329"/>
  <anchor x="0" y="-22" name="_belowLC"/>
  <outline>
    <contour>
      <point x="-16" y="-264" type="line"/>
      <point x="16" y="-264" type="line"/>
      <point x="10" y="-76" type="line"/>
      <point x="-10" y="-76" type="line"/>
    </contour>
  </outline>
</glyph>
<glyph name="perthousand" format="2">
  <advance width="1195"/>
  <unicode hex="2030"/>
  <outline>
    <contour>
      <point x="902" y="196" type="curve" smooth="yes"/>
      <point x="902" y="337"/>
      <point x="949" y="383"/>
      <point x="996" y="383" type="curve" smooth="yes"/>
      <point x="1042" y="383"/>
      <point x="1090" y="337"/>
      <point x="1090" y="196" type="curve" smooth="yes"/>
      <point x="1090" y="55"/>
      <point x="1042" y="10"/>
      <point x="996" y="10" type="curve" smooth="yes"/>
      <point x="949" y="10"/>
      <point x="902" y="55"/>
    </contour>
    <contour>
      <point x="996" y="402" type="curve" smooth="yes"/>
      <point x="931" y="402"/>
      <point x="870" y="344"/>
      <point x="870" y="196" type="curve" smooth="yes"/>
      <point x="870" y="48"/>
      <point x="931" y="-9"/>
      <point x="996" y="-9" type="curve" smooth="yes"/>
      <point x="1061" y="-9"/>
      <point x="1121" y="48"/>
      <point x="1121" y="196" type="curve" smooth="yes"/>
      <point x="1121" y="344"/>
      <point x="1061" y="402"/>
    </contour>
    <component base="percent"/>
  </outline>
</glyph>
<glyph name="uniE608" format="2">
  <advance width="520"/>
  <unicode hex="E608"/>
  <outline>
    <contour>
      <point x="421" y="212" type="curve" smooth="yes"/>
      <point x="421" y="138"/>
      <point x="353" y="75"/>
      <point x="249" y="75" type="curve" smooth="yes"/>
      <point x="167" y="75"/>
      <point x="99" y="114"/>
      <point x="99" y="183" type="curve" smooth="yes"/>
      <point x="99" y="251"/>
      <point x="168" y="320"/>
      <point x="271" y="320" type="curve" smooth="yes"/>
      <point x="353" y="320"/>
      <point x="421" y="279"/>
    </contour>
    <contour>
      <point x="470" y="195" type="curve" smooth="yes"/>
      <point x="470" y="304"/>
      <point x="402" y="411"/>
      <point x="255" y="411" type="curve" smooth="yes"/>
      <point x="128" y="411"/>
      <point x="50" y="315"/>
      <point x="50" y="203" type="curve" smooth="yes"/>
      <point x="50" y="93"/>
      <point x="118" y="-15"/>
      <point x="266" y="-15" type="curve" smooth="yes"/>
      <point x="393" y="-15"/>
      <point x="470" y="83"/>
    </contour>
    <contour>
      <point x="155" y="526" type="curve"/>
      <point x="162" y="461" type="line"/>
      <point x="185" y="461" type="line"/>
      <point x="403" y="582" type="line"/>
      <point x="397" y="680" type="line"/>
      <point x="377" y="691" type="line"/>
      <point x="297" y="634"/>
      <point x="220" y="580"/>
    </contour>
  </outline>
</glyph>
<glyph name="uniE60A" format="2">
  <advance width="638"/>
  <unicode hex="E60A"/>
  <outline>
    <contour>
      <point x="227" y="-154" type="line"/>
      <point x="275" y="-234"/>
      <point x="326" y="-316"/>
      <point x="385" y="-399" type="curve"/>
      <point x="407" y="-387" type="line"/>
      <point x="415" y="-287" type="line"/>
      <point x="255" y="-95" type="line"/>
      <point x="235" y="-95" type="line"/>
    </contour>
    <contour>
      <point x="194" y="199" type="curve"/>
      <point x="122" y="199" type="line"/>
      <point x="87" y="322"/>
      <point x="160" y="467"/>
      <point x="329" y="467" type="curve" smooth="yes"/>
      <point x="440" y="467"/>
      <point x="534" y="396"/>
      <point x="534" y="290" type="curve" smooth="yes"/>
      <point x="534" y="186"/>
      <point x="429" y="99"/>
      <point x="312" y="51" type="curve"/>
      <point x="303" y="29" type="line"/>
      <point x="508" y="-262" type="line"/>
      <point x="530" y="-251" type="line"/>
      <point x="536" y="-151" type="line"/>
      <point x="393" y="14" type="line"/>
      <point x="391" y="-20" type="line"/>
      <point x="507" y="47"/>
      <point x="583" y="128"/>
      <point x="583" y="272" type="curve" smooth="yes"/>
      <point x="583" y="426"/>
      <point x="496" y="566"/>
      <point x="313" y="566" type="curve"/>
      <point x="150" y="566"/>
      <point x="55" y="428"/>
      <point x="55" y="281" type="curve" smooth="yes"/>
      <point x="55" y="198"/>
      <point x="85" y="90"/>
      <point x="155" y="90" type="curve" smooth="yes"/>
      <point x="201" y="90"/>
      <point x="231" y="136"/>
    </contour>
  </outline>
</glyph>
<glyph name="uniE60C" format="2">
  <advance width="530"/>
  <unicode hex="E60C"/>
  <outline>
    <contour>
      <point x="139" y="278"/>
      <point x="139" y="268"/>
      <point x="139" y="268" type="curve"/>
      <point x="233" y="213"/>
      <point x="278" y="184"/>
      <point x="360" y="117" type="curve"/>
      <point x="370" y="120" type="line"/>
      <point x="370" y="434" type="line"/>
      <point x="360" y="437" type="line"/>
      <point x="294" y="380"/>
      <point x="214" y="327"/>
      <point x="139" y="278" type="curve"/>
    </contour>
    <contour>
      <point x="20" y="312" type="line"/>
      <point x="145" y="381"/>
      <point x="264" y="475"/>
      <point x="370" y="561" type="curve"/>
      <point x="392" y="561" type="line"/>
      <point x="445" y="508" type="line"/>
      <point x="445" y="2" type="line"/>
      <point x="423" y="-11" type="line"/>
      <point x="327" y="69"/>
      <point x="214" y="145"/>
      <point x="93" y="213" type="curve"/>
      <point x="93" y="213"/>
      <point x="20" y="292"/>
      <point x="20" y="292" type="curve"/>
    </contour>
  </outline>
</glyph>
<glyph name="uniE60D" format="2">
  <advance width="500"/>
  <unicode hex="E60D"/>
  <outline>
    <contour>
      <point x="104" y="361" type="curve" smooth="yes"/>
      <point x="104" y="420"/>
      <point x="171" y="479"/>
      <point x="273" y="479" type="curve" smooth="yes"/>
      <point x="347" y="479"/>
      <point x="396" y="450"/>
      <point x="396" y="399" type="curve" smooth="yes"/>
      <point x="396" y="345"/>
      <point x="329" y="280"/>
      <point x="227" y="280" type="curve" smooth="yes"/>
      <point x="155" y="280"/>
      <point x="104" y="311"/>
    </contour>
    <contour>
      <point x="55" y="376" type="curve" smooth="yes"/>
      <point x="55" y="280"/>
      <point x="109" y="193"/>
      <point x="248" y="193" type="curve" smooth="yes"/>
      <point x="378" y="193"/>
      <point x="445" y="278"/>
      <point x="445" y="384" type="curve" smooth="yes"/>
      <point x="445" y="477"/>
      <point x="391" y="566"/>
      <point x="252" y="566" type="curve" smooth="yes"/>
      <point x="123" y="566"/>
      <point x="55" y="480"/>
    </contour>
    <contour>
      <point x="395" y="-44" type="line"/>
      <point x="395" y="-102"/>
      <point x="327" y="-169"/>
      <point x="227" y="-169" type="curve" smooth="yes"/>
      <point x="154" y="-169"/>
      <point x="99" y="-139"/>
      <point x="99" y="-87" type="curve" smooth="yes"/>
      <point x="99" y="-26"/>
      <point x="162" y="30"/>
      <point x="248" y="30" type="curve" smooth="yes"/>
      <point x="414" y="30"/>
      <point x="396" y="-236"/>
      <point x="565" y="-236" type="curve" smooth="yes"/>
      <point x="672" y="-236"/>
      <point x="707" y="-123"/>
      <point x="712" y="-104" type="curve"/>
      <point x="673" y="-44" type="line"/>
      <point x="653" y="-44" type="line"/>
      <point x="641" y="-73"/>
      <point x="615" y="-146"/>
      <point x="554" y="-146" type="curve" smooth="yes"/>
      <point x="429" y="-146"/>
      <point x="439" y="116"/>
      <point x="239" y="116" type="curve" smooth="yes"/>
      <point x="111" y="116"/>
      <point x="50" y="26"/>
      <point x="50" y="-78" type="curve" smooth="yes"/>
      <point x="50" y="-174"/>
      <point x="107" y="-257"/>
      <point x="246" y="-257" type="curve" smooth="yes"/>
      <point x="372" y="-257"/>
      <point x="430" y="-171"/>
      <point x="430" y="-66" type="curve"/>
    </contour>
  </outline>
</glyph>
<glyph name="uniE615" format="2">
  <advance width="614"/>
  <unicode hex="E615"/>
  <outline>
    <contour>
      <point x="243" y="298" type="curve"/>
      <point x="294" y="233" type="line"/>
      <point x="310" y="233" type="line"/>
      <point x="332" y="258"/>
      <point x="356" y="280"/>
      <point x="383" y="298" type="curve"/>
      <point x="327" y="370" type="line"/>
      <point x="297" y="350"/>
      <point x="269" y="326"/>
    </contour>
    <contour>
      <point x="299" y="85" type="curve" smooth="yes"/>
      <point x="189" y="85"/>
      <point x="155" y="163"/>
      <point x="155" y="303" type="curve" smooth="yes"/>
      <point x="155" y="510" type="line"/>
      <point x="102" y="564" type="line"/>
      <point x="79" y="551" type="line"/>
      <point x="79" y="272" type="line" smooth="yes"/>
      <point x="79" y="103"/>
      <point x="148" y="-15"/>
      <point x="304" y="-15" type="curve" smooth="yes"/>
      <point x="483" y="-15"/>
      <point x="545" y="145"/>
      <point x="545" y="298" type="curve" smooth="yes"/>
      <point x="545" y="436"/>
      <point x="500" y="569"/>
      <point x="432" y="569" type="curve" smooth="yes"/>
      <point x="384" y="569"/>
      <point x="355" y="522"/>
      <point x="391" y="460" type="curve"/>
      <point x="463" y="460" type="line"/>
      <point x="481" y="409"/>
      <point x="485" y="355"/>
      <point x="485" y="308" type="curve" smooth="yes"/>
      <point x="485" y="186"/>
      <point x="424" y="85"/>
    </contour>
  </outline>
</glyph>
<glyph name="uniE618" format="2">
  <advance width="598"/>
  <unicode hex="E618"/>
  <outline>
    <contour>
      <point x="259" y="566" type="curve" smooth="yes"/>
      <point x="186" y="566"/>
      <point x="116" y="545"/>
      <point x="50" y="498" type="curve"/>
      <point x="50" y="475" type="line"/>
      <point x="124" y="401" type="line"/>
      <point x="178" y="442"/>
      <point x="228" y="467"/>
      <point x="297" y="467" type="curve" smooth="yes"/>
      <point x="407" y="467"/>
      <point x="489" y="397"/>
      <point x="489" y="286" type="curve" smooth="yes"/>
      <point x="489" y="182"/>
      <point x="422" y="85"/>
      <point x="280" y="85" type="curve" smooth="yes"/>
      <point x="207" y="85"/>
      <point x="142" y="111"/>
      <point x="77" y="162" type="curve"/>
      <point x="45" y="127" type="line"/>
      <point x="114" y="41"/>
      <point x="197" y="-15"/>
      <point x="300" y="-15" type="curve" smooth="yes"/>
      <point x="447" y="-15"/>
      <point x="539" y="111"/>
      <point x="539" y="264" type="curve" smooth="yes"/>
      <point x="539" y="415"/>
      <point x="451" y="566"/>
    </contour>
  </outline>
</glyph>
<glyph name="uniE61B" format="2">
  <advance width="611"/>
  <unicode hex="E61B"/>
  <outline>
    <contour>
      <point x="263" y="-6" type="line"/>
      <point x="313" y="-88"/>
      <point x="369" y="-174"/>
      <point x="431" y="-261" type="curve"/>
      <point x="450" y="-251" type="line"/>
      <point x="458" y="-151" type="line"/>
      <point x="291" y="55" type="line"/>
      <point x="271" y="55" type="line"/>
    </contour>
    <contour>
      <point x="89" y="551" type="line"/>
      <point x="89" y="41" type="line"/>
      <point x="143" y="-13" type="line"/>
      <point x="165" y="0" type="line"/>
      <point x="165" y="510" type="line"/>
      <point x="112" y="564" type="line"/>
    </contour>
    <contour>
      <point x="446" y="551" type="line"/>
      <point x="446" y="41" type="line"/>
      <point x="499" y="-13" type="line"/>
      <point x="522" y="0" type="line"/>
      <point x="522" y="510" type="line"/>
      <point x="468" y="564" type="line"/>
    </contour>
    <contour>
      <point x="194" y="226" type="line"/>
      <point x="488" y="226" type="line"/>
      <point x="488" y="248" type="line"/>
      <point x="417" y="320" type="line"/>
      <point x="133" y="320" type="line"/>
      <point x="120" y="300" type="line"/>
    </contour>
  </outline>
</glyph>
<glyph name="uniE61C" format="2">
  <advance width="550"/>
  <unicode hex="E61C"/>
  <outline>
    <contour>
      <point x="173" y="691" type="curve"/>
      <point x="180" y="631" type="line"/>
      <point x="199" y="631" type="line"/>
      <point x="457" y="789" type="line"/>
      <point x="450" y="888" type="line"/>
      <point x="428" y="901" type="line"/>
      <point x="333" y="830"/>
      <point x="249" y="759"/>
    </contour>
    <contour>
      <point x="412" y="224" type="curve"/>
      <point x="405" y="225" type="line"/>
      <point x="376" y="157"/>
      <point x="271" y="48"/>
      <point x="188" y="-31" type="curve"/>
      <point x="196" y="-116" type="line"/>
      <point x="218" y="-129" type="line"/>
      <point x="374" y="4"/>
      <point x="498" y="171"/>
      <point x="495" y="348" type="curve" smooth="yes"/>
      <point x="492" y="505"/>
      <point x="379" y="566"/>
      <point x="282" y="566" type="curve" smooth="yes"/>
      <point x="134" y="566"/>
      <point x="50" y="447"/>
      <point x="50" y="342" type="curve" smooth="yes"/>
      <point x="50" y="225"/>
      <point x="134" y="140"/>
      <point x="246" y="140" type="curve" smooth="yes"/>
      <point x="323" y="140"/>
      <point x="382" y="180"/>
    </contour>
    <contour>
      <point x="440" y="369" type="curve" smooth="yes"/>
      <point x="440" y="286"/>
      <point x="365" y="226"/>
      <point x="251" y="226" type="curve" smooth="yes"/>
      <point x="165" y="226"/>
      <point x="99" y="263"/>
      <point x="99" y="336" type="curve" smooth="yes"/>
      <point x="99" y="413"/>
      <point x="179" y="479"/>
      <point x="289" y="479" type="curve" smooth="yes"/>
      <point x="379" y="479"/>
      <point x="440" y="440"/>
    </contour>
  </outline>
</glyph>
